<svg xmlns="http://www.w3.org/2000/svg" width="19" height="19" viewBox="0 0 19 19" fill="none">
<path d="M10.3486 7.38257L10.3486 7.38255L6.13207 1.25754L6.13206 1.25753L5.78277 0.749951L5.75297 0.706641H5.70039H0.519775H0.329584L0.437393 0.863325L1.70075 2.69943L1.70076 2.69944L7.30693 10.8442L7.30695 10.8442L7.97326 11.8115L7.97328 11.8116L12.4773 18.3563L12.4774 18.3564L12.8268 18.8634L12.8566 18.9066H12.9092H18.0898H18.28L18.1722 18.7499L16.9082 16.9134L11.0149 8.35097L11.0149 8.35096L10.3486 7.38257ZM10.0598 9.383L15.67 17.5341L13.5764 17.5342L8.92709 10.7788L8.92708 10.7787L8.26076 9.81095L8.26075 9.81094L2.93907 2.07834H5.03199L9.39342 8.41519L9.39343 8.4152L10.0598 9.38299L10.0598 9.383Z" fill="white" stroke="white" stroke-width="0.2"/>
<path d="M8.26171 9.81048L8.18807 9.70353L8.10348 9.80203L7.31352 10.7218L7.31351 10.7219L0.424151 18.7404L0.282242 18.9056H0.5H1.99464H2.04055L2.07048 18.8708L8.13153 11.8196L8.13155 11.8195L8.92151 10.9002L8.97172 10.8417L8.92803 10.7783L8.26171 9.81048Z" fill="white" stroke="white" stroke-width="0.2"/>
<path d="M17.5415 0.871826L17.6835 0.706641H17.4657H15.971H15.9253L15.8954 0.741273L14.6159 2.22259L14.6157 2.22279L10.1899 7.37408L10.1899 7.37409L9.39998 8.29347L9.34978 8.3519L9.39346 8.41535L10.0598 9.38315L10.1334 9.49003L10.218 9.39164L11.008 8.47285L11.008 8.47284L17.5415 0.871826Z" fill="white" stroke="white" stroke-width="0.2"/>
</svg>