<svg xmlns="http://www.w3.org/2000/svg" width="24" height="25" viewBox="0 0 24 25" fill="none">
<path d="M14.0836 10.4734H14.0834C13.5745 10.4733 13.0715 10.5819 12.608 10.7918C12.3297 10.9178 12.0695 11.0786 11.8333 11.2697V11.1401C11.8333 10.9633 11.7631 10.7937 11.6381 10.6687C11.513 10.5436 11.3435 10.4734 11.1667 10.4734C10.9899 10.4734 10.8203 10.5436 10.6953 10.6687C10.5702 10.7937 10.5 10.9633 10.5 11.1401V17.8067C10.5 17.9836 10.5702 18.1531 10.6953 18.2781C10.8203 18.4032 10.9899 18.4734 11.1667 18.4734C11.3435 18.4734 11.513 18.4032 11.6381 18.2781C11.7631 18.1531 11.8333 17.9836 11.8333 17.8067V14.0567C11.8333 13.46 12.0704 12.8877 12.4923 12.4658C12.9143 12.0438 13.4866 11.8067 14.0833 11.8067C14.6801 11.8067 15.2524 12.0438 15.6743 12.4658C16.0963 12.8877 16.3333 13.46 16.3333 14.0567V17.8067C16.3333 17.9836 16.4036 18.1531 16.5286 18.2781C16.6536 18.4032 16.8232 18.4734 17 18.4734C17.1768 18.4734 17.3464 18.4032 17.4714 18.2781C17.5964 18.1531 17.6667 17.9836 17.6667 17.8067V14.0567V14.0565C17.6656 13.1065 17.2878 12.1958 16.616 11.524C15.9443 10.8523 15.0336 10.4745 14.0836 10.4734ZM8.59937 7.04061L8.42259 7.21738L8.59937 7.04061C8.49877 6.94001 8.37934 6.86021 8.24791 6.80577C8.11647 6.75133 7.9756 6.72331 7.83333 6.72331C7.61907 6.72331 7.40962 6.78684 7.23147 6.90588C7.05331 7.02492 6.91446 7.19411 6.83246 7.39207C6.75047 7.59002 6.72902 7.80784 6.77082 8.01799C6.81262 8.22814 6.91579 8.42117 7.0673 8.57267C7.21881 8.72418 7.41184 8.82736 7.62199 8.86916C7.83213 8.91096 8.04995 8.88951 8.24791 8.80751C8.44586 8.72552 8.61505 8.58666 8.73409 8.40851C8.85313 8.23036 8.91667 8.0209 8.91667 7.80664C8.91667 7.66438 8.88865 7.5235 8.83421 7.39207C8.77976 7.26063 8.69997 7.1412 8.59937 7.04061ZM22.25 4.05664V4.05636C22.2496 3.65875 22.0914 3.27755 21.8102 2.99639C21.5291 2.71524 21.1479 2.55709 20.7503 2.55664H20.75L3.25 2.55664L3.24972 2.55664C2.85211 2.55709 2.47091 2.71524 2.18975 2.99639C1.9086 3.27755 1.75045 3.65875 1.75 4.05636V4.05664L1.75 21.5566L1.75 21.5569C1.75045 21.9545 1.90861 22.3357 2.18976 22.6169C2.47091 22.898 2.85211 23.0562 3.24971 23.0566H3.25H20.75H20.7503C21.1479 23.0562 21.5291 22.898 21.8102 22.6169C22.0914 22.3357 22.2495 21.9545 22.25 21.5569V21.5566V4.05664ZM7.83333 10.4734C7.65652 10.4734 7.48695 10.5436 7.36193 10.6687C7.2369 10.7937 7.16667 10.9633 7.16667 11.1401V17.8067C7.16667 17.9836 7.23691 18.1531 7.36193 18.2781C7.48695 18.4032 7.65652 18.4734 7.83333 18.4734C8.01015 18.4734 8.17971 18.4032 8.30474 18.2781C8.42976 18.1531 8.5 17.9836 8.5 17.8067V11.1401C8.5 10.9633 8.42976 10.7937 8.30474 10.6687C8.17971 10.5436 8.01014 10.4734 7.83333 10.4734ZM20.8677 3.93893C20.899 3.97023 20.9166 4.01266 20.9167 4.05693V21.5564C20.9166 21.6006 20.899 21.6431 20.8677 21.6744L21.0445 21.8511L20.8677 21.6744C20.8364 21.7057 20.794 21.7233 20.7497 21.7233H3.25029C3.20602 21.7233 3.16359 21.7057 3.13229 21.6744L2.95637 21.8503L3.13229 21.6744C3.10101 21.6431 3.08341 21.6007 3.08333 21.5564C3.08333 21.5564 3.08333 21.5564 3.08333 21.5564V4.05693C3.08333 4.0569 3.08333 4.05687 3.08333 4.05684C3.08341 4.01261 3.10101 3.97021 3.13229 3.93893L2.95551 3.76215L3.13229 3.93893C3.16357 3.90765 3.20597 3.89005 3.2502 3.88997C3.25023 3.88997 3.25026 3.88997 3.25029 3.88997H20.7497C20.7497 3.88997 20.7498 3.88997 20.7498 3.88997C20.794 3.89005 20.8364 3.90765 20.8677 3.93893L21.0436 3.76301L20.8677 3.93893Z" fill="white" stroke="white" stroke-width="0.5"/>
</svg>