<svg xmlns="http://www.w3.org/2000/svg" width="24" height="25" viewBox="0 0 24 25" fill="none">
<path d="M12 8.22331C11.0935 8.22331 10.2074 8.49212 9.45364 8.99574C8.69991 9.49936 8.11245 10.2152 7.76555 11.0527C7.41865 11.8902 7.32789 12.8117 7.50473 13.7008C7.68158 14.5899 8.1181 15.4066 8.75909 16.0475C9.40008 16.6885 10.2168 17.1251 11.1058 17.3019C11.9949 17.4788 12.9165 17.388 13.754 17.0411C14.5915 16.6942 15.3073 16.1067 15.8109 15.353C16.3145 14.5993 16.5833 13.7131 16.5833 12.8066C16.582 11.5915 16.0986 10.4265 15.2394 9.56725C14.3801 8.70801 13.2152 8.22468 12 8.22331ZM12 16.5566C11.2583 16.5566 10.5333 16.3367 9.91661 15.9247C9.29993 15.5126 8.81928 14.9269 8.53545 14.2417C8.25162 13.5565 8.17736 12.8025 8.32205 12.0751C8.46675 11.3476 8.8239 10.6794 9.34835 10.155C9.8728 9.63054 10.541 9.27339 11.2684 9.1287C11.9958 8.984 12.7498 9.05826 13.4351 9.34209C14.1203 9.62592 14.706 10.1066 15.118 10.7233C15.5301 11.3399 15.75 12.065 15.75 12.8066C15.7489 13.8009 15.3534 14.754 14.6504 15.4571C13.9474 16.1601 12.9942 16.5555 12 16.5566ZM16.5833 2.80664H7.41667C5.98058 2.80827 4.60377 3.37947 3.5883 4.39494C2.57283 5.41041 2.00163 6.78722 2 8.22331V17.39C2.00163 18.8261 2.57283 20.2029 3.5883 21.2183C4.60377 22.2338 5.98058 22.805 7.41667 22.8066H16.5833C18.0194 22.805 19.3962 22.2338 20.4117 21.2183C21.4272 20.2029 21.9984 18.8261 22 17.39V8.22331C21.9984 6.78722 21.4272 5.41041 20.4117 4.39494C19.3962 3.37947 18.0194 2.80827 16.5833 2.80664ZM21.1667 17.39C21.1653 18.6051 20.682 19.7701 19.8227 20.6294C18.9635 21.4886 17.7985 21.9719 16.5833 21.9733H7.41667C6.20151 21.9719 5.03652 21.4886 4.17728 20.6294C3.31803 19.7701 2.83471 18.6051 2.83333 17.39V8.22331C2.83471 7.00815 3.31803 5.84316 4.17728 4.98392C5.03652 4.12467 6.20151 3.64135 7.41667 3.63997H16.5833C17.7985 3.64135 18.9635 4.12467 19.8227 4.98392C20.682 5.84316 21.1653 7.00815 21.1667 8.22331V17.39ZM18.25 7.38997C18.25 7.55479 18.2011 7.71591 18.1096 7.85295C18.018 7.98999 17.8878 8.0968 17.7356 8.15987C17.5833 8.22295 17.4157 8.23945 17.2541 8.20729C17.0924 8.17514 16.944 8.09577 16.8274 7.97923C16.7109 7.86269 16.6315 7.7142 16.5993 7.55255C16.5672 7.3909 16.5837 7.22334 16.6468 7.07107C16.7098 6.9188 16.8166 6.78865 16.9537 6.69708C17.0907 6.60551 17.2518 6.55664 17.4167 6.55664C17.6376 6.55689 17.8494 6.64477 18.0056 6.801C18.1619 6.95722 18.2497 7.16904 18.25 7.38997Z" fill="white" stroke="white"/>
</svg>